<?xml version="1.0" encoding="UTF-8" standalone="no"?>
<!DOCTYPE svg PUBLIC "-//W3C//DTD SVG 1.1//EN"
 "http://www.w3.org/Graphics/SVG/1.1/DTD/svg11.dtd">
<!-- Generated by graphviz version 2.46.1 (20210213.1702)
 -->
<!-- Title: G Pages: 1 -->
<svg width="812pt" height="461pt"
 viewBox="0.00 0.00 812.20 460.59" xmlns="http://www.w3.org/2000/svg" xmlns:xlink="http://www.w3.org/1999/xlink">
<g id="graph0" class="graph" transform="scale(1 1) rotate(0) translate(21.6 438.99)">
<title>G</title>
<polygon fill="#111111" stroke="transparent" points="-21.6,21.6 -21.6,-438.99 790.6,-438.99 790.6,21.6 -21.6,21.6"/>
<!-- ../scss/app.scss -->
<g id="node1" class="node">
<title>../scss/app.scss</title>
<path fill="none" stroke="#c6c5fe" d="M237.83,-417.39C237.83,-417.39 141.17,-417.39 141.17,-417.39 137.33,-417.39 133.5,-413.55 133.5,-409.72 133.5,-409.72 133.5,-402.05 133.5,-402.05 133.5,-398.22 137.33,-394.39 141.17,-394.39 141.17,-394.39 237.83,-394.39 237.83,-394.39 241.67,-394.39 245.5,-398.22 245.5,-402.05 245.5,-402.05 245.5,-409.72 245.5,-409.72 245.5,-413.55 241.67,-417.39 237.83,-417.39"/>
<text text-anchor="middle" x="189.5" y="-402.19" font-family="Arial" font-size="14.00" fill="#c6c5fe">../scss/app.scss</text>
</g>
<!-- ../scss/scrollingnotes.scss -->
<g id="node2" class="node">
<title>../scss/scrollingnotes.scss</title>
<path fill="none" stroke="#cfffac" d="M489.33,-417.39C489.33,-417.39 332.67,-417.39 332.67,-417.39 328.83,-417.39 325,-413.55 325,-409.72 325,-409.72 325,-402.05 325,-402.05 325,-398.22 328.83,-394.39 332.67,-394.39 332.67,-394.39 489.33,-394.39 489.33,-394.39 493.17,-394.39 497,-398.22 497,-402.05 497,-402.05 497,-409.72 497,-409.72 497,-413.55 493.17,-417.39 489.33,-417.39"/>
<text text-anchor="middle" x="411" y="-402.19" font-family="Arial" font-size="14.00" fill="#cfffac">../scss/scrollingnotes.scss</text>
</g>
<!-- ../scss/app.scss&#45;&gt;../scss/scrollingnotes.scss -->
<g id="edge1" class="edge">
<title>../scss/app.scss&#45;&gt;../scss/scrollingnotes.scss</title>
<path fill="none" stroke="#757575" d="M245.61,-405.89C266.61,-405.89 291.19,-405.89 314.86,-405.89"/>
<polygon fill="#757575" stroke="#757575" points="314.93,-409.39 324.93,-405.89 314.93,-402.39 314.93,-409.39"/>
</g>
<!-- ../scss/audio.css -->
<g id="node3" class="node">
<title>../scss/audio.css</title>
<path fill="none" stroke="#cfffac" d="M239.83,-376.39C239.83,-376.39 139.17,-376.39 139.17,-376.39 135.33,-376.39 131.5,-372.55 131.5,-368.72 131.5,-368.72 131.5,-361.05 131.5,-361.05 131.5,-357.22 135.33,-353.39 139.17,-353.39 139.17,-353.39 239.83,-353.39 239.83,-353.39 243.67,-353.39 247.5,-357.22 247.5,-361.05 247.5,-361.05 247.5,-368.72 247.5,-368.72 247.5,-372.55 243.67,-376.39 239.83,-376.39"/>
<text text-anchor="middle" x="189.5" y="-361.19" font-family="Arial" font-size="14.00" fill="#cfffac">../scss/audio.css</text>
</g>
<!-- ../scss/vanilla&#45;js&#45;dropdown.css -->
<g id="node4" class="node">
<title>../scss/vanilla&#45;js&#45;dropdown.css</title>
<path fill="none" stroke="#cfffac" d="M281.33,-335.39C281.33,-335.39 97.67,-335.39 97.67,-335.39 93.83,-335.39 90,-331.55 90,-327.72 90,-327.72 90,-320.05 90,-320.05 90,-316.22 93.83,-312.39 97.67,-312.39 97.67,-312.39 281.33,-312.39 281.33,-312.39 285.17,-312.39 289,-316.22 289,-320.05 289,-320.05 289,-327.72 289,-327.72 289,-331.55 285.17,-335.39 281.33,-335.39"/>
<text text-anchor="middle" x="189.5" y="-320.19" font-family="Arial" font-size="14.00" fill="#cfffac">../scss/vanilla&#45;js&#45;dropdown.css</text>
</g>
<!-- app.js -->
<g id="node5" class="node">
<title>app.js</title>
<path fill="none" stroke="#c6c5fe" d="M46.33,-257.39C46.33,-257.39 7.67,-257.39 7.67,-257.39 3.83,-257.39 0,-253.55 0,-249.72 0,-249.72 0,-242.05 0,-242.05 0,-238.22 3.83,-234.39 7.67,-234.39 7.67,-234.39 46.33,-234.39 46.33,-234.39 50.17,-234.39 54,-238.22 54,-242.05 54,-242.05 54,-249.72 54,-249.72 54,-253.55 50.17,-257.39 46.33,-257.39"/>
<text text-anchor="middle" x="27" y="-242.19" font-family="Arial" font-size="14.00" fill="#c6c5fe">app.js</text>
</g>
<!-- app.js&#45;&gt;../scss/app.scss -->
<g id="edge2" class="edge">
<title>app.js&#45;&gt;../scss/app.scss</title>
<path fill="none" stroke="#757575" d="M29.53,-257.46C33.74,-284.53 48.15,-352.24 90,-385.89 99.56,-393.57 111.3,-398.55 123.3,-401.72"/>
<polygon fill="#757575" stroke="#757575" points="122.88,-405.21 133.4,-403.98 124.41,-398.38 122.88,-405.21"/>
</g>
<!-- app.js&#45;&gt;../scss/audio.css -->
<g id="edge3" class="edge">
<title>app.js&#45;&gt;../scss/audio.css</title>
<path fill="none" stroke="#757575" d="M31.8,-257.53C39.32,-278.58 58.16,-322.83 90,-344.89 99.37,-351.38 110.38,-355.86 121.58,-358.94"/>
<polygon fill="#757575" stroke="#757575" points="120.89,-362.37 131.43,-361.29 122.52,-355.56 120.89,-362.37"/>
</g>
<!-- app.js&#45;&gt;../scss/vanilla&#45;js&#45;dropdown.css -->
<g id="edge4" class="edge">
<title>app.js&#45;&gt;../scss/vanilla&#45;js&#45;dropdown.css</title>
<path fill="none" stroke="#757575" d="M38.77,-257.54C50.33,-269.38 69.79,-287.42 90,-297.89 98.77,-302.43 108.41,-306.23 118.12,-309.4"/>
<polygon fill="#757575" stroke="#757575" points="117.23,-312.78 127.81,-312.35 119.27,-306.09 117.23,-312.78"/>
</g>
<!-- hps.js -->
<g id="node6" class="node">
<title>hps.js</title>
<path fill="none" stroke="#c6c5fe" d="M430.33,-297.39C430.33,-297.39 391.67,-297.39 391.67,-297.39 387.83,-297.39 384,-293.55 384,-289.72 384,-289.72 384,-282.05 384,-282.05 384,-278.22 387.83,-274.39 391.67,-274.39 391.67,-274.39 430.33,-274.39 430.33,-274.39 434.17,-274.39 438,-278.22 438,-282.05 438,-282.05 438,-289.72 438,-289.72 438,-293.55 434.17,-297.39 430.33,-297.39"/>
<text text-anchor="middle" x="411" y="-282.19" font-family="Arial" font-size="14.00" fill="#c6c5fe">hps.js</text>
</g>
<!-- app.js&#45;&gt;hps.js -->
<g id="edge5" class="edge">
<title>app.js&#45;&gt;hps.js</title>
<path fill="none" stroke="#757575" d="M54.09,-252.64C65.1,-255.26 78.11,-258.07 90,-259.89 192.14,-275.49 314.14,-282.13 373.69,-284.6"/>
<polygon fill="#757575" stroke="#757575" points="373.59,-288.1 383.72,-285.01 373.87,-281.11 373.59,-288.1"/>
</g>
<!-- player.js -->
<g id="node7" class="node">
<title>player.js</title>
<path fill="none" stroke="#c6c5fe" d="M631.33,-257.39C631.33,-257.39 580.67,-257.39 580.67,-257.39 576.83,-257.39 573,-253.55 573,-249.72 573,-249.72 573,-242.05 573,-242.05 573,-238.22 576.83,-234.39 580.67,-234.39 580.67,-234.39 631.33,-234.39 631.33,-234.39 635.17,-234.39 639,-238.22 639,-242.05 639,-242.05 639,-249.72 639,-249.72 639,-253.55 635.17,-257.39 631.33,-257.39"/>
<text text-anchor="middle" x="606" y="-242.19" font-family="Arial" font-size="14.00" fill="#c6c5fe">player.js</text>
</g>
<!-- app.js&#45;&gt;player.js -->
<g id="edge6" class="edge">
<title>app.js&#45;&gt;player.js</title>
<path fill="none" stroke="#757575" d="M54.29,-245.89C145.6,-245.89 449.5,-245.89 562.34,-245.89"/>
<polygon fill="#757575" stroke="#757575" points="562.65,-249.39 572.65,-245.89 562.65,-242.39 562.65,-249.39"/>
</g>
<!-- sackpipa.js -->
<g id="node8" class="node">
<title>sackpipa.js</title>
<path fill="none" stroke="#c6c5fe" d="M639.83,-139.39C639.83,-139.39 572.17,-139.39 572.17,-139.39 568.33,-139.39 564.5,-135.55 564.5,-131.72 564.5,-131.72 564.5,-124.05 564.5,-124.05 564.5,-120.22 568.33,-116.39 572.17,-116.39 572.17,-116.39 639.83,-116.39 639.83,-116.39 643.67,-116.39 647.5,-120.22 647.5,-124.05 647.5,-124.05 647.5,-131.72 647.5,-131.72 647.5,-135.55 643.67,-139.39 639.83,-139.39"/>
<text text-anchor="middle" x="606" y="-124.19" font-family="Arial" font-size="14.00" fill="#c6c5fe">sackpipa.js</text>
</g>
<!-- app.js&#45;&gt;sackpipa.js -->
<g id="edge7" class="edge">
<title>app.js&#45;&gt;sackpipa.js</title>
<path fill="none" stroke="#757575" d="M36.58,-233.99C47.36,-220.01 67.24,-197.3 90,-185.89 244.83,-108.28 457.98,-114.59 554.22,-122.49"/>
<polygon fill="#757575" stroke="#757575" points="554,-125.99 564.27,-123.36 554.6,-119.01 554,-125.99"/>
</g>
<!-- songs.js -->
<g id="node9" class="node">
<title>songs.js</title>
<path fill="none" stroke="#c6c5fe" d="M214.83,-217.39C214.83,-217.39 164.17,-217.39 164.17,-217.39 160.33,-217.39 156.5,-213.55 156.5,-209.72 156.5,-209.72 156.5,-202.05 156.5,-202.05 156.5,-198.22 160.33,-194.39 164.17,-194.39 164.17,-194.39 214.83,-194.39 214.83,-194.39 218.67,-194.39 222.5,-198.22 222.5,-202.05 222.5,-202.05 222.5,-209.72 222.5,-209.72 222.5,-213.55 218.67,-217.39 214.83,-217.39"/>
<text text-anchor="middle" x="189.5" y="-202.19" font-family="Arial" font-size="14.00" fill="#c6c5fe">songs.js</text>
</g>
<!-- app.js&#45;&gt;songs.js -->
<g id="edge8" class="edge">
<title>app.js&#45;&gt;songs.js</title>
<path fill="none" stroke="#757575" d="M54.14,-239.37C79.09,-233.15 117.11,-223.68 146.34,-216.4"/>
<polygon fill="#757575" stroke="#757575" points="147.42,-219.73 156.28,-213.92 145.73,-212.94 147.42,-219.73"/>
</g>
<!-- state.js -->
<g id="node10" class="node">
<title>state.js</title>
<path fill="none" stroke="#c6c5fe" d="M432.83,-99.39C432.83,-99.39 389.17,-99.39 389.17,-99.39 385.33,-99.39 381.5,-95.55 381.5,-91.72 381.5,-91.72 381.5,-84.05 381.5,-84.05 381.5,-80.22 385.33,-76.39 389.17,-76.39 389.17,-76.39 432.83,-76.39 432.83,-76.39 436.67,-76.39 440.5,-80.22 440.5,-84.05 440.5,-84.05 440.5,-91.72 440.5,-91.72 440.5,-95.55 436.67,-99.39 432.83,-99.39"/>
<text text-anchor="middle" x="411" y="-84.19" font-family="Arial" font-size="14.00" fill="#c6c5fe">state.js</text>
</g>
<!-- app.js&#45;&gt;state.js -->
<g id="edge9" class="edge">
<title>app.js&#45;&gt;state.js</title>
<path fill="none" stroke="#757575" d="M29.57,-234.24C33.81,-207.72 48.18,-142.89 90,-113.89 175.47,-54.61 306.37,-67.94 371.05,-79.52"/>
<polygon fill="#757575" stroke="#757575" points="370.75,-83.02 381.22,-81.42 372.04,-76.14 370.75,-83.02"/>
</g>
<!-- vanilla&#45;js&#45;dropdown.js -->
<g id="node11" class="node">
<title>vanilla&#45;js&#45;dropdown.js</title>
<path fill="none" stroke="#c6c5fe" d="M671.33,-59.39C671.33,-59.39 540.67,-59.39 540.67,-59.39 536.83,-59.39 533,-55.55 533,-51.72 533,-51.72 533,-44.05 533,-44.05 533,-40.22 536.83,-36.39 540.67,-36.39 540.67,-36.39 671.33,-36.39 671.33,-36.39 675.17,-36.39 679,-40.22 679,-44.05 679,-44.05 679,-51.72 679,-51.72 679,-55.55 675.17,-59.39 671.33,-59.39"/>
<text text-anchor="middle" x="606" y="-44.19" font-family="Arial" font-size="14.00" fill="#c6c5fe">vanilla&#45;js&#45;dropdown.js</text>
</g>
<!-- app.js&#45;&gt;vanilla&#45;js&#45;dropdown.js -->
<g id="edge10" class="edge">
<title>app.js&#45;&gt;vanilla&#45;js&#45;dropdown.js</title>
<path fill="none" stroke="#757575" d="M27.89,-234.07C28.29,-200.95 34.47,-106.97 90,-65.89 231.7,38.96 460.34,-6.92 558.16,-33.62"/>
<polygon fill="#757575" stroke="#757575" points="557.47,-37.06 568.05,-36.38 559.35,-30.32 557.47,-37.06"/>
</g>
<!-- utils.js -->
<g id="node12" class="node">
<title>utils.js</title>
<path fill="none" stroke="#cfffac" d="M761.33,-179.39C761.33,-179.39 722.67,-179.39 722.67,-179.39 718.83,-179.39 715,-175.55 715,-171.72 715,-171.72 715,-164.05 715,-164.05 715,-160.22 718.83,-156.39 722.67,-156.39 722.67,-156.39 761.33,-156.39 761.33,-156.39 765.17,-156.39 769,-160.22 769,-164.05 769,-164.05 769,-171.72 769,-171.72 769,-175.55 765.17,-179.39 761.33,-179.39"/>
<text text-anchor="middle" x="742" y="-164.19" font-family="Arial" font-size="14.00" fill="#cfffac">utils.js</text>
</g>
<!-- hps.js&#45;&gt;utils.js -->
<g id="edge11" class="edge">
<title>hps.js&#45;&gt;utils.js</title>
<path fill="none" stroke="#757575" d="M438.19,-291.33C488.82,-300.36 601.93,-313.21 679,-266.89 707.94,-249.49 725.46,-212.85 734.18,-189.35"/>
<polygon fill="#757575" stroke="#757575" points="737.59,-190.19 737.57,-179.6 730.98,-187.89 737.59,-190.19"/>
</g>
<!-- player.js&#45;&gt;utils.js -->
<g id="edge12" class="edge">
<title>player.js&#45;&gt;utils.js</title>
<path fill="none" stroke="#757575" d="M639.25,-236.93C652.07,-232.69 666.68,-226.98 679,-219.89 694.83,-210.78 710.57,-197.51 722.23,-186.66"/>
<polygon fill="#757575" stroke="#757575" points="724.79,-189.05 729.6,-179.61 719.95,-183.99 724.79,-189.05"/>
</g>
<!-- sackpipa.js&#45;&gt;utils.js -->
<g id="edge13" class="edge">
<title>sackpipa.js&#45;&gt;utils.js</title>
<path fill="none" stroke="#757575" d="M645.76,-139.46C664.41,-145.02 686.64,-151.66 704.93,-157.12"/>
<polygon fill="#757575" stroke="#757575" points="704.05,-160.51 714.63,-160.02 706.05,-153.8 704.05,-160.51"/>
</g>
<!-- songs.js&#45;&gt;utils.js -->
<g id="edge17" class="edge">
<title>songs.js&#45;&gt;utils.js</title>
<path fill="none" stroke="#757575" d="M222.68,-206.22C301.11,-206.63 508.21,-205.19 679,-181.89 687.47,-180.73 696.5,-178.99 704.96,-177.13"/>
<polygon fill="#757575" stroke="#757575" points="705.98,-180.49 714.94,-174.83 704.41,-173.67 705.98,-180.49"/>
</g>
<!-- song.js -->
<g id="node13" class="node">
<title>song.js</title>
<path fill="none" stroke="#c6c5fe" d="M432.83,-179.39C432.83,-179.39 389.17,-179.39 389.17,-179.39 385.33,-179.39 381.5,-175.55 381.5,-171.72 381.5,-171.72 381.5,-164.05 381.5,-164.05 381.5,-160.22 385.33,-156.39 389.17,-156.39 389.17,-156.39 432.83,-156.39 432.83,-156.39 436.67,-156.39 440.5,-160.22 440.5,-164.05 440.5,-164.05 440.5,-171.72 440.5,-171.72 440.5,-175.55 436.67,-179.39 432.83,-179.39"/>
<text text-anchor="middle" x="411" y="-164.19" font-family="Arial" font-size="14.00" fill="#c6c5fe">song.js</text>
</g>
<!-- songs.js&#45;&gt;song.js -->
<g id="edge16" class="edge">
<title>songs.js&#45;&gt;song.js</title>
<path fill="none" stroke="#757575" d="M222.89,-200.28C262.44,-193.43 329.26,-181.86 371.43,-174.56"/>
<polygon fill="#757575" stroke="#757575" points="372.07,-178.01 381.33,-172.85 370.88,-171.11 372.07,-178.01"/>
</g>
<!-- state.js&#45;&gt;utils.js -->
<g id="edge18" class="edge">
<title>state.js&#45;&gt;utils.js</title>
<path fill="none" stroke="#757575" d="M440.82,-83.89C491.51,-78.16 598.85,-71.91 679,-107.89 698.46,-116.62 715.46,-134.21 726.71,-148.1"/>
<polygon fill="#757575" stroke="#757575" points="724.06,-150.39 732.95,-156.15 729.6,-146.1 724.06,-150.39"/>
</g>
<!-- vanilla&#45;js&#45;dropdown.js&#45;&gt;utils.js -->
<g id="edge19" class="edge">
<title>vanilla&#45;js&#45;dropdown.js&#45;&gt;utils.js</title>
<path fill="none" stroke="#757575" d="M652.71,-59.4C662,-63.06 671.27,-67.8 679,-73.89 703.93,-93.52 722.17,-126.04 732.18,-147.22"/>
<polygon fill="#757575" stroke="#757575" points="728.99,-148.67 736.31,-156.33 735.37,-145.77 728.99,-148.67"/>
</g>
<!-- song.js&#45;&gt;sackpipa.js -->
<g id="edge14" class="edge">
<title>song.js&#45;&gt;sackpipa.js</title>
<path fill="none" stroke="#757575" d="M440.89,-161.9C470.88,-155.68 518.38,-145.84 554.57,-138.34"/>
<polygon fill="#757575" stroke="#757575" points="555.38,-141.75 564.46,-136.29 553.96,-134.89 555.38,-141.75"/>
</g>
<!-- song.js&#45;&gt;utils.js -->
<g id="edge15" class="edge">
<title>song.js&#45;&gt;utils.js</title>
<path fill="none" stroke="#757575" d="M440.62,-167.89C500.45,-167.89 638.66,-167.89 704.65,-167.89"/>
<polygon fill="#757575" stroke="#757575" points="704.97,-171.39 714.97,-167.89 704.97,-164.39 704.97,-171.39"/>
</g>
</g>
</svg>
